<?xml version="1.0" encoding="utf-8" standalone="no"?>
<!DOCTYPE svg PUBLIC "-//W3C//DTD SVG 1.1//EN"
  "http://www.w3.org/Graphics/SVG/1.1/DTD/svg11.dtd">
<svg xmlns:xlink="http://www.w3.org/1999/xlink" width="720pt" height="720pt" viewBox="0 0 720 720" xmlns="http://www.w3.org/2000/svg" version="1.1">
 <metadata>
  <rdf:RDF xmlns:dc="http://purl.org/dc/elements/1.1/" xmlns:cc="http://creativecommons.org/ns#" xmlns:rdf="http://www.w3.org/1999/02/22-rdf-syntax-ns#">
   <cc:Work>
    <dc:type rdf:resource="http://purl.org/dc/dcmitype/StillImage"/>
    <dc:date>2024-07-02T13:32:29.773427</dc:date>
    <dc:format>image/svg+xml</dc:format>
    <dc:creator>
     <cc:Agent>
      <dc:title>Matplotlib v3.8.0, https://matplotlib.org/</dc:title>
     </cc:Agent>
    </dc:creator>
   </cc:Work>
  </rdf:RDF>
 </metadata>
 <defs>
  <style type="text/css">*{stroke-linejoin: round; stroke-linecap: butt}</style>
 </defs>
 <g id="figure_1">
  <g id="patch_1">
   <path d="M 0 720 
L 720 720 
L 720 0 
L 0 0 
z
" style="fill: #ffffff"/>
  </g>
  <g id="axes_1">
   <g id="patch_2">
    <path d="M 646.2 363.6 
C 646.2 327.19843 639.029684 291.150818 625.099406 257.520153 
C 611.169128 223.889487 590.749797 193.329798 565.01 167.59 
C 539.270202 141.850203 508.710513 121.430872 475.079847 107.500594 
C 441.449182 93.570316 405.40157 86.4 369 86.4 
C 332.59843 86.4 296.550818 93.570316 262.920153 107.500594 
C 229.289487 121.430872 198.729798 141.850203 172.99 167.59 
C 147.250203 193.329798 126.830872 223.889487 112.900594 257.520153 
C 98.970316 291.150818 91.8 327.19843 91.8 363.6 
C 91.8 400.00157 98.970316 436.049182 112.900594 469.679847 
C 126.830872 503.310513 147.250203 533.870202 172.99 559.61 
C 198.729798 585.349797 229.289487 605.769128 262.920153 619.699406 
C 296.550818 633.629684 332.59843 640.8 369 640.8 
C 405.40157 640.8 441.449182 633.629684 475.079847 619.699406 
C 508.710513 605.769128 539.270202 585.349797 565.01 559.61 
C 590.749797 533.870202 611.169128 503.310513 625.099406 469.679847 
C 639.029684 436.049182 646.2 400.00157 646.2 363.6 
M 369 363.6 
C 369 363.6 369 363.6 369 363.6 
C 369 363.6 369 363.6 369 363.6 
C 369 363.6 369 363.6 369 363.6 
C 369 363.6 369 363.6 369 363.6 
C 369 363.6 369 363.6 369 363.6 
C 369 363.6 369 363.6 369 363.6 
C 369 363.6 369 363.6 369 363.6 
C 369 363.6 369 363.6 369 363.6 
C 369 363.6 369 363.6 369 363.6 
C 369 363.6 369 363.6 369 363.6 
C 369 363.6 369 363.6 369 363.6 
C 369 363.6 369 363.6 369 363.6 
C 369 363.6 369 363.6 369 363.6 
C 369 363.6 369 363.6 369 363.6 
C 369 363.6 369 363.6 369 363.6 
C 369 363.6 369 363.6 369 363.6 
z
" style="fill: #ffffff"/>
   </g>
   <g id="PolyCollection_1">
    <defs>
     <path id="m4e64dd5c56" d="M 525.903732 -356.4 
L 398.7 -356.4 
L 383.85 -382.120954 
L 447.451866 -492.282618 
L 447.451866 -492.282618 
L 525.903732 -356.4 
z
"/>
    </defs>
    <g clip-path="url(#p3e7c157468)">
     <use xlink:href="#m4e64dd5c56" x="0" y="720" style="fill: #fd0100"/>
    </g>
   </g>
   <g id="line2d_1">
    <path d="M 394.720954 348.75 
L 437.589212 324 
L 480.457469 299.25 
L 523.325727 274.5 
L 566.193984 249.75 
" clip-path="url(#p3e7c157468)" style="fill: none; stroke: #fd0100; stroke-opacity: 0.25; stroke-width: 1.5; stroke-linecap: square"/>
   </g>
   <g id="PolyCollection_2">
    <defs>
     <path id="mbcab954115" d="M 417.803066 -440.92939 
L 383.85 -382.120954 
L 354.15 -382.120954 
L 320.196934 -440.92939 
L 320.196934 -440.92939 
L 417.803066 -440.92939 
z
"/>
    </defs>
    <g clip-path="url(#p3e7c157468)">
     <use xlink:href="#mbcab954115" x="0" y="720" style="fill: #fd0100"/>
    </g>
   </g>
   <g id="line2d_2">
    <path d="M 369 333.9 
L 369 284.4 
L 369 234.9 
L 369 185.4 
L 369 135.9 
" clip-path="url(#p3e7c157468)" style="fill: none; stroke: #fd0100; stroke-opacity: 0.25; stroke-width: 1.5; stroke-linecap: square"/>
   </g>
   <g id="PolyCollection_3">
    <defs>
     <path id="m9bc17a6934" d="M 262.527068 -540.816528 
L 354.15 -382.120954 
L 339.3 -356.4 
L 156.054135 -356.4 
L 156.054135 -356.4 
L 262.527068 -540.816528 
z
"/>
    </defs>
    <g clip-path="url(#p3e7c157468)">
     <use xlink:href="#m9bc17a6934" x="0" y="720" style="fill: #f76915"/>
    </g>
   </g>
   <g id="line2d_3">
    <path d="M 343.279046 348.75 
L 300.410788 324 
L 257.542531 299.25 
L 214.674273 274.5 
L 171.806016 249.75 
" clip-path="url(#p3e7c157468)" style="fill: none; stroke: #f76915; stroke-opacity: 0.25; stroke-width: 1.5; stroke-linecap: square"/>
   </g>
   <g id="PolyCollection_4">
    <defs>
     <path id="mcebc9fde2b" d="M 243.339079 -356.4 
L 339.3 -356.4 
L 354.15 -330.679046 
L 306.169539 -247.57445 
L 306.169539 -247.57445 
L 243.339079 -356.4 
z
"/>
    </defs>
    <g clip-path="url(#p3e7c157468)">
     <use xlink:href="#mcebc9fde2b" x="0" y="720" style="fill: #f76915"/>
    </g>
   </g>
   <g id="line2d_4">
    <path d="M 343.279046 378.45 
L 300.410788 403.2 
L 257.542531 427.95 
L 214.674273 452.7 
L 171.806016 477.45 
" clip-path="url(#p3e7c157468)" style="fill: none; stroke: #f76915; stroke-opacity: 0.25; stroke-width: 1.5; stroke-linecap: square"/>
   </g>
   <g id="PolyCollection_5">
    <defs>
     <path id="me0cc41f578" d="M 347.530297 -319.213384 
L 354.15 -330.679046 
L 398.7 -356.4 
L 411.939405 -356.4 
L 411.939405 -356.4 
L 347.530297 -319.213384 
z
"/>
    </defs>
    <g clip-path="url(#p3e7c157468)">
     <use xlink:href="#me0cc41f578" x="0" y="720" style="fill: #eede04"/>
    </g>
   </g>
   <g id="line2d_5">
    <path d="M 383.85 389.320954 
L 408.6 432.189212 
L 433.35 475.057469 
L 458.1 517.925727 
L 482.85 560.793984 
" clip-path="url(#p3e7c157468)" style="fill: none; stroke: #eede04; stroke-opacity: 0.25; stroke-width: 1.5; stroke-linecap: square"/>
   </g>
   <g id="matplotlib.axis_1"/>
   <g id="matplotlib.axis_2"/>
   <g id="line2d_6">
    <path d="M 398.7 363.6 
L 596.7 363.6 
" clip-path="url(#p3e7c157468)" style="fill: none; stroke: #ffffff; stroke-width: 1.5; stroke-linecap: square"/>
   </g>
   <g id="line2d_7">
    <path d="M 398.7 363.6 
L 383.85 337.879046 
" clip-path="url(#p3e7c157468)" style="fill: none; stroke: #ffffff; stroke-linecap: square"/>
   </g>
   <g id="line2d_8">
    <path d="M 448.2 363.6 
L 408.6 295.010788 
" clip-path="url(#p3e7c157468)" style="fill: none; stroke: #ffffff; stroke-linecap: square"/>
   </g>
   <g id="line2d_9">
    <path d="M 497.7 363.6 
L 433.35 252.142531 
" clip-path="url(#p3e7c157468)" style="fill: none; stroke: #ffffff; stroke-linecap: square"/>
   </g>
   <g id="line2d_10">
    <path d="M 547.2 363.6 
L 458.1 209.274273 
" clip-path="url(#p3e7c157468)" style="fill: none; stroke: #ffffff; stroke-linecap: square"/>
   </g>
   <g id="line2d_11">
    <path d="M 596.7 363.6 
L 482.85 166.406016 
" clip-path="url(#p3e7c157468)" style="fill: none; stroke: #ffffff; stroke-linecap: square"/>
   </g>
   <g id="line2d_12">
    <path d="M 398.7 363.6 
L 383.85 337.879046 
" clip-path="url(#p3e7c157468)" style="fill: none; stroke: #ffffff; stroke-width: 0.5; stroke-linecap: square"/>
   </g>
   <g id="line2d_13">
    <path d="M 423.45 363.6 
L 396.225 316.444917 
" clip-path="url(#p3e7c157468)" style="fill: none; stroke: #ffffff; stroke-width: 0.5; stroke-linecap: square"/>
   </g>
   <g id="line2d_14">
    <path d="M 448.2 363.6 
L 408.6 295.010788 
" clip-path="url(#p3e7c157468)" style="fill: none; stroke: #ffffff; stroke-width: 0.5; stroke-linecap: square"/>
   </g>
   <g id="line2d_15">
    <path d="M 472.95 363.6 
L 420.975 273.576659 
" clip-path="url(#p3e7c157468)" style="fill: none; stroke: #ffffff; stroke-width: 0.5; stroke-linecap: square"/>
   </g>
   <g id="line2d_16">
    <path d="M 497.7 363.6 
L 433.35 252.142531 
" clip-path="url(#p3e7c157468)" style="fill: none; stroke: #ffffff; stroke-width: 0.5; stroke-linecap: square"/>
   </g>
   <g id="line2d_17">
    <path d="M 522.45 363.6 
L 445.725 230.708402 
" clip-path="url(#p3e7c157468)" style="fill: none; stroke: #ffffff; stroke-width: 0.5; stroke-linecap: square"/>
   </g>
   <g id="line2d_18">
    <path d="M 547.2 363.6 
L 458.1 209.274273 
" clip-path="url(#p3e7c157468)" style="fill: none; stroke: #ffffff; stroke-width: 0.5; stroke-linecap: square"/>
   </g>
   <g id="line2d_19">
    <path d="M 571.95 363.6 
L 470.475 187.840144 
" clip-path="url(#p3e7c157468)" style="fill: none; stroke: #ffffff; stroke-width: 0.5; stroke-linecap: square"/>
   </g>
   <g id="line2d_20">
    <path d="M 596.7 363.6 
L 482.85 166.406016 
" clip-path="url(#p3e7c157468)" style="fill: none; stroke: #ffffff; stroke-width: 0.5; stroke-linecap: square"/>
   </g>
   <g id="line2d_21">
    <path d="M 383.85 337.879046 
L 482.85 166.406016 
" clip-path="url(#p3e7c157468)" style="fill: none; stroke: #ffffff; stroke-width: 1.5; stroke-linecap: square"/>
   </g>
   <g id="line2d_22">
    <path d="M 383.85 337.879046 
L 354.15 337.879046 
" clip-path="url(#p3e7c157468)" style="fill: none; stroke: #ffffff; stroke-linecap: square"/>
   </g>
   <g id="line2d_23">
    <path d="M 408.6 295.010788 
L 329.4 295.010788 
" clip-path="url(#p3e7c157468)" style="fill: none; stroke: #ffffff; stroke-linecap: square"/>
   </g>
   <g id="line2d_24">
    <path d="M 433.35 252.142531 
L 304.65 252.142531 
" clip-path="url(#p3e7c157468)" style="fill: none; stroke: #ffffff; stroke-linecap: square"/>
   </g>
   <g id="line2d_25">
    <path d="M 458.1 209.274273 
L 279.9 209.274273 
" clip-path="url(#p3e7c157468)" style="fill: none; stroke: #ffffff; stroke-linecap: square"/>
   </g>
   <g id="line2d_26">
    <path d="M 482.85 166.406016 
L 255.15 166.406016 
" clip-path="url(#p3e7c157468)" style="fill: none; stroke: #ffffff; stroke-linecap: square"/>
   </g>
   <g id="line2d_27">
    <path d="M 383.85 337.879046 
L 354.15 337.879046 
" clip-path="url(#p3e7c157468)" style="fill: none; stroke: #ffffff; stroke-width: 0.5; stroke-linecap: square"/>
   </g>
   <g id="line2d_28">
    <path d="M 396.225 316.444917 
L 341.775 316.444917 
" clip-path="url(#p3e7c157468)" style="fill: none; stroke: #ffffff; stroke-width: 0.5; stroke-linecap: square"/>
   </g>
   <g id="line2d_29">
    <path d="M 408.6 295.010788 
L 329.4 295.010788 
" clip-path="url(#p3e7c157468)" style="fill: none; stroke: #ffffff; stroke-width: 0.5; stroke-linecap: square"/>
   </g>
   <g id="line2d_30">
    <path d="M 420.975 273.576659 
L 317.025 273.576659 
" clip-path="url(#p3e7c157468)" style="fill: none; stroke: #ffffff; stroke-width: 0.5; stroke-linecap: square"/>
   </g>
   <g id="line2d_31">
    <path d="M 433.35 252.142531 
L 304.65 252.142531 
" clip-path="url(#p3e7c157468)" style="fill: none; stroke: #ffffff; stroke-width: 0.5; stroke-linecap: square"/>
   </g>
   <g id="line2d_32">
    <path d="M 445.725 230.708402 
L 292.275 230.708402 
" clip-path="url(#p3e7c157468)" style="fill: none; stroke: #ffffff; stroke-width: 0.5; stroke-linecap: square"/>
   </g>
   <g id="line2d_33">
    <path d="M 458.1 209.274273 
L 279.9 209.274273 
" clip-path="url(#p3e7c157468)" style="fill: none; stroke: #ffffff; stroke-width: 0.5; stroke-linecap: square"/>
   </g>
   <g id="line2d_34">
    <path d="M 470.475 187.840144 
L 267.525 187.840144 
" clip-path="url(#p3e7c157468)" style="fill: none; stroke: #ffffff; stroke-width: 0.5; stroke-linecap: square"/>
   </g>
   <g id="line2d_35">
    <path d="M 482.85 166.406016 
L 255.15 166.406016 
" clip-path="url(#p3e7c157468)" style="fill: none; stroke: #ffffff; stroke-width: 0.5; stroke-linecap: square"/>
   </g>
   <g id="line2d_36">
    <path d="M 354.15 337.879046 
L 255.15 166.406016 
" clip-path="url(#p3e7c157468)" style="fill: none; stroke: #ffffff; stroke-width: 1.5; stroke-linecap: square"/>
   </g>
   <g id="line2d_37">
    <path d="M 354.15 337.879046 
L 339.3 363.6 
" clip-path="url(#p3e7c157468)" style="fill: none; stroke: #ffffff; stroke-linecap: square"/>
   </g>
   <g id="line2d_38">
    <path d="M 329.4 295.010788 
L 289.8 363.6 
" clip-path="url(#p3e7c157468)" style="fill: none; stroke: #ffffff; stroke-linecap: square"/>
   </g>
   <g id="line2d_39">
    <path d="M 304.65 252.142531 
L 240.3 363.6 
" clip-path="url(#p3e7c157468)" style="fill: none; stroke: #ffffff; stroke-linecap: square"/>
   </g>
   <g id="line2d_40">
    <path d="M 279.9 209.274273 
L 190.8 363.6 
" clip-path="url(#p3e7c157468)" style="fill: none; stroke: #ffffff; stroke-linecap: square"/>
   </g>
   <g id="line2d_41">
    <path d="M 255.15 166.406016 
L 141.3 363.6 
" clip-path="url(#p3e7c157468)" style="fill: none; stroke: #ffffff; stroke-linecap: square"/>
   </g>
   <g id="line2d_42">
    <path d="M 354.15 337.879046 
L 339.3 363.6 
" clip-path="url(#p3e7c157468)" style="fill: none; stroke: #ffffff; stroke-width: 0.5; stroke-linecap: square"/>
   </g>
   <g id="line2d_43">
    <path d="M 341.775 316.444917 
L 314.55 363.6 
" clip-path="url(#p3e7c157468)" style="fill: none; stroke: #ffffff; stroke-width: 0.5; stroke-linecap: square"/>
   </g>
   <g id="line2d_44">
    <path d="M 329.4 295.010788 
L 289.8 363.6 
" clip-path="url(#p3e7c157468)" style="fill: none; stroke: #ffffff; stroke-width: 0.5; stroke-linecap: square"/>
   </g>
   <g id="line2d_45">
    <path d="M 317.025 273.576659 
L 265.05 363.6 
" clip-path="url(#p3e7c157468)" style="fill: none; stroke: #ffffff; stroke-width: 0.5; stroke-linecap: square"/>
   </g>
   <g id="line2d_46">
    <path d="M 304.65 252.142531 
L 240.3 363.6 
" clip-path="url(#p3e7c157468)" style="fill: none; stroke: #ffffff; stroke-width: 0.5; stroke-linecap: square"/>
   </g>
   <g id="line2d_47">
    <path d="M 292.275 230.708402 
L 215.55 363.6 
" clip-path="url(#p3e7c157468)" style="fill: none; stroke: #ffffff; stroke-width: 0.5; stroke-linecap: square"/>
   </g>
   <g id="line2d_48">
    <path d="M 279.9 209.274273 
L 190.8 363.6 
" clip-path="url(#p3e7c157468)" style="fill: none; stroke: #ffffff; stroke-width: 0.5; stroke-linecap: square"/>
   </g>
   <g id="line2d_49">
    <path d="M 267.525 187.840144 
L 166.05 363.6 
" clip-path="url(#p3e7c157468)" style="fill: none; stroke: #ffffff; stroke-width: 0.5; stroke-linecap: square"/>
   </g>
   <g id="line2d_50">
    <path d="M 255.15 166.406016 
L 141.3 363.6 
" clip-path="url(#p3e7c157468)" style="fill: none; stroke: #ffffff; stroke-width: 0.5; stroke-linecap: square"/>
   </g>
   <g id="line2d_51">
    <path d="M 339.3 363.6 
L 141.3 363.6 
" clip-path="url(#p3e7c157468)" style="fill: none; stroke: #ffffff; stroke-width: 1.5; stroke-linecap: square"/>
   </g>
   <g id="line2d_52">
    <path d="M 339.3 363.6 
L 354.15 389.320954 
" clip-path="url(#p3e7c157468)" style="fill: none; stroke: #ffffff; stroke-linecap: square"/>
   </g>
   <g id="line2d_53">
    <path d="M 289.8 363.6 
L 329.4 432.189212 
" clip-path="url(#p3e7c157468)" style="fill: none; stroke: #ffffff; stroke-linecap: square"/>
   </g>
   <g id="line2d_54">
    <path d="M 240.3 363.6 
L 304.65 475.057469 
" clip-path="url(#p3e7c157468)" style="fill: none; stroke: #ffffff; stroke-linecap: square"/>
   </g>
   <g id="line2d_55">
    <path d="M 190.8 363.6 
L 279.9 517.925727 
" clip-path="url(#p3e7c157468)" style="fill: none; stroke: #ffffff; stroke-linecap: square"/>
   </g>
   <g id="line2d_56">
    <path d="M 141.3 363.6 
L 255.15 560.793984 
" clip-path="url(#p3e7c157468)" style="fill: none; stroke: #ffffff; stroke-linecap: square"/>
   </g>
   <g id="line2d_57">
    <path d="M 339.3 363.6 
L 354.15 389.320954 
" clip-path="url(#p3e7c157468)" style="fill: none; stroke: #ffffff; stroke-width: 0.5; stroke-linecap: square"/>
   </g>
   <g id="line2d_58">
    <path d="M 314.55 363.6 
L 341.775 410.755083 
" clip-path="url(#p3e7c157468)" style="fill: none; stroke: #ffffff; stroke-width: 0.5; stroke-linecap: square"/>
   </g>
   <g id="line2d_59">
    <path d="M 289.8 363.6 
L 329.4 432.189212 
" clip-path="url(#p3e7c157468)" style="fill: none; stroke: #ffffff; stroke-width: 0.5; stroke-linecap: square"/>
   </g>
   <g id="line2d_60">
    <path d="M 265.05 363.6 
L 317.025 453.623341 
" clip-path="url(#p3e7c157468)" style="fill: none; stroke: #ffffff; stroke-width: 0.5; stroke-linecap: square"/>
   </g>
   <g id="line2d_61">
    <path d="M 240.3 363.6 
L 304.65 475.057469 
" clip-path="url(#p3e7c157468)" style="fill: none; stroke: #ffffff; stroke-width: 0.5; stroke-linecap: square"/>
   </g>
   <g id="line2d_62">
    <path d="M 215.55 363.6 
L 292.275 496.491598 
" clip-path="url(#p3e7c157468)" style="fill: none; stroke: #ffffff; stroke-width: 0.5; stroke-linecap: square"/>
   </g>
   <g id="line2d_63">
    <path d="M 190.8 363.6 
L 279.9 517.925727 
" clip-path="url(#p3e7c157468)" style="fill: none; stroke: #ffffff; stroke-width: 0.5; stroke-linecap: square"/>
   </g>
   <g id="line2d_64">
    <path d="M 166.05 363.6 
L 267.525 539.359856 
" clip-path="url(#p3e7c157468)" style="fill: none; stroke: #ffffff; stroke-width: 0.5; stroke-linecap: square"/>
   </g>
   <g id="line2d_65">
    <path d="M 141.3 363.6 
L 255.15 560.793984 
" clip-path="url(#p3e7c157468)" style="fill: none; stroke: #ffffff; stroke-width: 0.5; stroke-linecap: square"/>
   </g>
   <g id="line2d_66">
    <path d="M 354.15 389.320954 
L 255.15 560.793984 
" clip-path="url(#p3e7c157468)" style="fill: none; stroke: #ffffff; stroke-width: 1.5; stroke-linecap: square"/>
   </g>
   <g id="line2d_67">
    <path d="M 354.15 389.320954 
L 398.7 363.6 
" clip-path="url(#p3e7c157468)" style="fill: none; stroke: #ffffff; stroke-linecap: square"/>
   </g>
   <g id="line2d_68">
    <path d="M 329.4 432.189212 
L 448.2 363.6 
" clip-path="url(#p3e7c157468)" style="fill: none; stroke: #ffffff; stroke-linecap: square"/>
   </g>
   <g id="line2d_69">
    <path d="M 304.65 475.057469 
L 497.7 363.6 
" clip-path="url(#p3e7c157468)" style="fill: none; stroke: #ffffff; stroke-linecap: square"/>
   </g>
   <g id="line2d_70">
    <path d="M 279.9 517.925727 
L 547.2 363.6 
" clip-path="url(#p3e7c157468)" style="fill: none; stroke: #ffffff; stroke-linecap: square"/>
   </g>
   <g id="line2d_71">
    <path d="M 255.15 560.793984 
L 596.7 363.6 
" clip-path="url(#p3e7c157468)" style="fill: none; stroke: #ffffff; stroke-linecap: square"/>
   </g>
   <g id="line2d_72">
    <path d="M 354.15 389.320954 
L 398.7 363.6 
" clip-path="url(#p3e7c157468)" style="fill: none; stroke: #ffffff; stroke-width: 0.5; stroke-linecap: square"/>
   </g>
   <g id="line2d_73">
    <path d="M 341.775 410.755083 
L 423.45 363.6 
" clip-path="url(#p3e7c157468)" style="fill: none; stroke: #ffffff; stroke-width: 0.5; stroke-linecap: square"/>
   </g>
   <g id="line2d_74">
    <path d="M 329.4 432.189212 
L 448.2 363.6 
" clip-path="url(#p3e7c157468)" style="fill: none; stroke: #ffffff; stroke-width: 0.5; stroke-linecap: square"/>
   </g>
   <g id="line2d_75">
    <path d="M 317.025 453.623341 
L 472.95 363.6 
" clip-path="url(#p3e7c157468)" style="fill: none; stroke: #ffffff; stroke-width: 0.5; stroke-linecap: square"/>
   </g>
   <g id="line2d_76">
    <path d="M 304.65 475.057469 
L 497.7 363.6 
" clip-path="url(#p3e7c157468)" style="fill: none; stroke: #ffffff; stroke-width: 0.5; stroke-linecap: square"/>
   </g>
   <g id="line2d_77">
    <path d="M 292.275 496.491598 
L 522.45 363.6 
" clip-path="url(#p3e7c157468)" style="fill: none; stroke: #ffffff; stroke-width: 0.5; stroke-linecap: square"/>
   </g>
   <g id="line2d_78">
    <path d="M 279.9 517.925727 
L 547.2 363.6 
" clip-path="url(#p3e7c157468)" style="fill: none; stroke: #ffffff; stroke-width: 0.5; stroke-linecap: square"/>
   </g>
   <g id="line2d_79">
    <path d="M 267.525 539.359856 
L 571.95 363.6 
" clip-path="url(#p3e7c157468)" style="fill: none; stroke: #ffffff; stroke-width: 0.5; stroke-linecap: square"/>
   </g>
   <g id="line2d_80">
    <path d="M 255.15 560.793984 
L 596.7 363.6 
" clip-path="url(#p3e7c157468)" style="fill: none; stroke: #ffffff; stroke-width: 0.5; stroke-linecap: square"/>
   </g>
   <g id="text_1">
    <!-- f1 -->
    <g style="fill: #fd0100" transform="translate(595.547184 227.110469) scale(0.1 -0.1)">
     <defs>
      <path id="DejaVuSans-66" d="M 2375 4863 
L 2375 4384 
L 1825 4384 
Q 1516 4384 1395 4259 
Q 1275 4134 1275 3809 
L 1275 3500 
L 2222 3500 
L 2222 3053 
L 1275 3053 
L 1275 0 
L 697 0 
L 697 3053 
L 147 3053 
L 147 3500 
L 697 3500 
L 697 3744 
Q 697 4328 969 4595 
Q 1241 4863 1831 4863 
L 2375 4863 
z
" transform="scale(0.015625)"/>
      <path id="DejaVuSans-31" d="M 794 531 
L 1825 531 
L 1825 4091 
L 703 3866 
L 703 4441 
L 1819 4666 
L 2450 4666 
L 2450 531 
L 3481 531 
L 3481 0 
L 794 0 
L 794 531 
z
" transform="scale(0.015625)"/>
     </defs>
     <use xlink:href="#DejaVuSans-66"/>
     <use xlink:href="#DejaVuSans-31" x="35.205078"/>
    </g>
    <!-- 0.64 -->
    <g style="fill: #fd0100" transform="translate(589.355778 238.308281) scale(0.1 -0.1)">
     <defs>
      <path id="DejaVuSans-30" d="M 2034 4250 
Q 1547 4250 1301 3770 
Q 1056 3291 1056 2328 
Q 1056 1369 1301 889 
Q 1547 409 2034 409 
Q 2525 409 2770 889 
Q 3016 1369 3016 2328 
Q 3016 3291 2770 3770 
Q 2525 4250 2034 4250 
z
M 2034 4750 
Q 2819 4750 3233 4129 
Q 3647 3509 3647 2328 
Q 3647 1150 3233 529 
Q 2819 -91 2034 -91 
Q 1250 -91 836 529 
Q 422 1150 422 2328 
Q 422 3509 836 4129 
Q 1250 4750 2034 4750 
z
" transform="scale(0.015625)"/>
      <path id="DejaVuSans-2e" d="M 684 794 
L 1344 794 
L 1344 0 
L 684 0 
L 684 794 
z
" transform="scale(0.015625)"/>
      <path id="DejaVuSans-36" d="M 2113 2584 
Q 1688 2584 1439 2293 
Q 1191 2003 1191 1497 
Q 1191 994 1439 701 
Q 1688 409 2113 409 
Q 2538 409 2786 701 
Q 3034 994 3034 1497 
Q 3034 2003 2786 2293 
Q 2538 2584 2113 2584 
z
M 3366 4563 
L 3366 3988 
Q 3128 4100 2886 4159 
Q 2644 4219 2406 4219 
Q 1781 4219 1451 3797 
Q 1122 3375 1075 2522 
Q 1259 2794 1537 2939 
Q 1816 3084 2150 3084 
Q 2853 3084 3261 2657 
Q 3669 2231 3669 1497 
Q 3669 778 3244 343 
Q 2819 -91 2113 -91 
Q 1303 -91 875 529 
Q 447 1150 447 2328 
Q 447 3434 972 4092 
Q 1497 4750 2381 4750 
Q 2619 4750 2861 4703 
Q 3103 4656 3366 4563 
z
" transform="scale(0.015625)"/>
      <path id="DejaVuSans-34" d="M 2419 4116 
L 825 1625 
L 2419 1625 
L 2419 4116 
z
M 2253 4666 
L 3047 4666 
L 3047 1625 
L 3713 1625 
L 3713 1100 
L 3047 1100 
L 3047 0 
L 2419 0 
L 2419 1100 
L 313 1100 
L 313 1709 
L 2253 4666 
z
" transform="scale(0.015625)"/>
     </defs>
     <use xlink:href="#DejaVuSans-30"/>
     <use xlink:href="#DejaVuSans-2e" x="63.623047"/>
     <use xlink:href="#DejaVuSans-36" x="95.410156"/>
     <use xlink:href="#DejaVuSans-34" x="159.033203"/>
    </g>
   </g>
   <g id="text_2">
    <!-- f1v -->
    <g style="fill: #fd0100" transform="translate(361.099219 93.460469) scale(0.1 -0.1)">
     <defs>
      <path id="DejaVuSans-76" d="M 191 3500 
L 800 3500 
L 1894 563 
L 2988 3500 
L 3597 3500 
L 2284 0 
L 1503 0 
L 191 3500 
z
" transform="scale(0.015625)"/>
     </defs>
     <use xlink:href="#DejaVuSans-66"/>
     <use xlink:href="#DejaVuSans-31" x="35.205078"/>
     <use xlink:href="#DejaVuSans-76" x="98.828125"/>
    </g>
    <!-- 0.34 -->
    <g style="fill: #fd0100" transform="translate(357.867188 104.658281) scale(0.1 -0.1)">
     <defs>
      <path id="DejaVuSans-33" d="M 2597 2516 
Q 3050 2419 3304 2112 
Q 3559 1806 3559 1356 
Q 3559 666 3084 287 
Q 2609 -91 1734 -91 
Q 1441 -91 1130 -33 
Q 819 25 488 141 
L 488 750 
Q 750 597 1062 519 
Q 1375 441 1716 441 
Q 2309 441 2620 675 
Q 2931 909 2931 1356 
Q 2931 1769 2642 2001 
Q 2353 2234 1838 2234 
L 1294 2234 
L 1294 2753 
L 1863 2753 
Q 2328 2753 2575 2939 
Q 2822 3125 2822 3475 
Q 2822 3834 2567 4026 
Q 2313 4219 1838 4219 
Q 1578 4219 1281 4162 
Q 984 4106 628 3988 
L 628 4550 
Q 988 4650 1302 4700 
Q 1616 4750 1894 4750 
Q 2613 4750 3031 4423 
Q 3450 4097 3450 3541 
Q 3450 3153 3228 2886 
Q 3006 2619 2597 2516 
z
" transform="scale(0.015625)"/>
     </defs>
     <use xlink:href="#DejaVuSans-30"/>
     <use xlink:href="#DejaVuSans-2e" x="63.623047"/>
     <use xlink:href="#DejaVuSans-33" x="95.410156"/>
     <use xlink:href="#DejaVuSans-34" x="159.033203"/>
    </g>
   </g>
   <g id="text_3">
    <!-- density -->
    <g style="fill: #f76915" transform="translate(119.178597 227.110469) scale(0.1 -0.1)">
     <defs>
      <path id="DejaVuSans-64" d="M 2906 2969 
L 2906 4863 
L 3481 4863 
L 3481 0 
L 2906 0 
L 2906 525 
Q 2725 213 2448 61 
Q 2172 -91 1784 -91 
Q 1150 -91 751 415 
Q 353 922 353 1747 
Q 353 2572 751 3078 
Q 1150 3584 1784 3584 
Q 2172 3584 2448 3432 
Q 2725 3281 2906 2969 
z
M 947 1747 
Q 947 1113 1208 752 
Q 1469 391 1925 391 
Q 2381 391 2643 752 
Q 2906 1113 2906 1747 
Q 2906 2381 2643 2742 
Q 2381 3103 1925 3103 
Q 1469 3103 1208 2742 
Q 947 2381 947 1747 
z
" transform="scale(0.015625)"/>
      <path id="DejaVuSans-65" d="M 3597 1894 
L 3597 1613 
L 953 1613 
Q 991 1019 1311 708 
Q 1631 397 2203 397 
Q 2534 397 2845 478 
Q 3156 559 3463 722 
L 3463 178 
Q 3153 47 2828 -22 
Q 2503 -91 2169 -91 
Q 1331 -91 842 396 
Q 353 884 353 1716 
Q 353 2575 817 3079 
Q 1281 3584 2069 3584 
Q 2775 3584 3186 3129 
Q 3597 2675 3597 1894 
z
M 3022 2063 
Q 3016 2534 2758 2815 
Q 2500 3097 2075 3097 
Q 1594 3097 1305 2825 
Q 1016 2553 972 2059 
L 3022 2063 
z
" transform="scale(0.015625)"/>
      <path id="DejaVuSans-6e" d="M 3513 2113 
L 3513 0 
L 2938 0 
L 2938 2094 
Q 2938 2591 2744 2837 
Q 2550 3084 2163 3084 
Q 1697 3084 1428 2787 
Q 1159 2491 1159 1978 
L 1159 0 
L 581 0 
L 581 3500 
L 1159 3500 
L 1159 2956 
Q 1366 3272 1645 3428 
Q 1925 3584 2291 3584 
Q 2894 3584 3203 3211 
Q 3513 2838 3513 2113 
z
" transform="scale(0.015625)"/>
      <path id="DejaVuSans-73" d="M 2834 3397 
L 2834 2853 
Q 2591 2978 2328 3040 
Q 2066 3103 1784 3103 
Q 1356 3103 1142 2972 
Q 928 2841 928 2578 
Q 928 2378 1081 2264 
Q 1234 2150 1697 2047 
L 1894 2003 
Q 2506 1872 2764 1633 
Q 3022 1394 3022 966 
Q 3022 478 2636 193 
Q 2250 -91 1575 -91 
Q 1294 -91 989 -36 
Q 684 19 347 128 
L 347 722 
Q 666 556 975 473 
Q 1284 391 1588 391 
Q 1994 391 2212 530 
Q 2431 669 2431 922 
Q 2431 1156 2273 1281 
Q 2116 1406 1581 1522 
L 1381 1569 
Q 847 1681 609 1914 
Q 372 2147 372 2553 
Q 372 3047 722 3315 
Q 1072 3584 1716 3584 
Q 2034 3584 2315 3537 
Q 2597 3491 2834 3397 
z
" transform="scale(0.015625)"/>
      <path id="DejaVuSans-69" d="M 603 3500 
L 1178 3500 
L 1178 0 
L 603 0 
L 603 3500 
z
M 603 4863 
L 1178 4863 
L 1178 4134 
L 603 4134 
L 603 4863 
z
" transform="scale(0.015625)"/>
      <path id="DejaVuSans-74" d="M 1172 4494 
L 1172 3500 
L 2356 3500 
L 2356 3053 
L 1172 3053 
L 1172 1153 
Q 1172 725 1289 603 
Q 1406 481 1766 481 
L 2356 481 
L 2356 0 
L 1766 0 
Q 1100 0 847 248 
Q 594 497 594 1153 
L 594 3053 
L 172 3053 
L 172 3500 
L 594 3500 
L 594 4494 
L 1172 4494 
z
" transform="scale(0.015625)"/>
      <path id="DejaVuSans-79" d="M 2059 -325 
Q 1816 -950 1584 -1140 
Q 1353 -1331 966 -1331 
L 506 -1331 
L 506 -850 
L 844 -850 
Q 1081 -850 1212 -737 
Q 1344 -625 1503 -206 
L 1606 56 
L 191 3500 
L 800 3500 
L 1894 763 
L 2988 3500 
L 3597 3500 
L 2059 -325 
z
" transform="scale(0.015625)"/>
     </defs>
     <use xlink:href="#DejaVuSans-64"/>
     <use xlink:href="#DejaVuSans-65" x="63.476562"/>
     <use xlink:href="#DejaVuSans-6e" x="125"/>
     <use xlink:href="#DejaVuSans-73" x="188.378906"/>
     <use xlink:href="#DejaVuSans-69" x="240.478516"/>
     <use xlink:href="#DejaVuSans-74" x="268.261719"/>
     <use xlink:href="#DejaVuSans-79" x="307.470703"/>
    </g>
    <!-- 0.93 -->
    <g style="fill: #f76915" transform="translate(126.378597 238.308281) scale(0.1 -0.1)">
     <defs>
      <path id="DejaVuSans-39" d="M 703 97 
L 703 672 
Q 941 559 1184 500 
Q 1428 441 1663 441 
Q 2288 441 2617 861 
Q 2947 1281 2994 2138 
Q 2813 1869 2534 1725 
Q 2256 1581 1919 1581 
Q 1219 1581 811 2004 
Q 403 2428 403 3163 
Q 403 3881 828 4315 
Q 1253 4750 1959 4750 
Q 2769 4750 3195 4129 
Q 3622 3509 3622 2328 
Q 3622 1225 3098 567 
Q 2575 -91 1691 -91 
Q 1453 -91 1209 -44 
Q 966 3 703 97 
z
M 1959 2075 
Q 2384 2075 2632 2365 
Q 2881 2656 2881 3163 
Q 2881 3666 2632 3958 
Q 2384 4250 1959 4250 
Q 1534 4250 1286 3958 
Q 1038 3666 1038 3163 
Q 1038 2656 1286 2365 
Q 1534 2075 1959 2075 
z
" transform="scale(0.015625)"/>
     </defs>
     <use xlink:href="#DejaVuSans-30"/>
     <use xlink:href="#DejaVuSans-2e" x="63.623047"/>
     <use xlink:href="#DejaVuSans-39" x="95.410156"/>
     <use xlink:href="#DejaVuSans-33" x="159.033203"/>
    </g>
   </g>
   <g id="text_4">
    <!-- clsCoef -->
    <g style="fill: #f76915" transform="translate(119.380941 494.410469) scale(0.1 -0.1)">
     <defs>
      <path id="DejaVuSans-63" d="M 3122 3366 
L 3122 2828 
Q 2878 2963 2633 3030 
Q 2388 3097 2138 3097 
Q 1578 3097 1268 2742 
Q 959 2388 959 1747 
Q 959 1106 1268 751 
Q 1578 397 2138 397 
Q 2388 397 2633 464 
Q 2878 531 3122 666 
L 3122 134 
Q 2881 22 2623 -34 
Q 2366 -91 2075 -91 
Q 1284 -91 818 406 
Q 353 903 353 1747 
Q 353 2603 823 3093 
Q 1294 3584 2113 3584 
Q 2378 3584 2631 3529 
Q 2884 3475 3122 3366 
z
" transform="scale(0.015625)"/>
      <path id="DejaVuSans-6c" d="M 603 4863 
L 1178 4863 
L 1178 0 
L 603 0 
L 603 4863 
z
" transform="scale(0.015625)"/>
      <path id="DejaVuSans-43" d="M 4122 4306 
L 4122 3641 
Q 3803 3938 3442 4084 
Q 3081 4231 2675 4231 
Q 1875 4231 1450 3742 
Q 1025 3253 1025 2328 
Q 1025 1406 1450 917 
Q 1875 428 2675 428 
Q 3081 428 3442 575 
Q 3803 722 4122 1019 
L 4122 359 
Q 3791 134 3420 21 
Q 3050 -91 2638 -91 
Q 1578 -91 968 557 
Q 359 1206 359 2328 
Q 359 3453 968 4101 
Q 1578 4750 2638 4750 
Q 3056 4750 3426 4639 
Q 3797 4528 4122 4306 
z
" transform="scale(0.015625)"/>
      <path id="DejaVuSans-6f" d="M 1959 3097 
Q 1497 3097 1228 2736 
Q 959 2375 959 1747 
Q 959 1119 1226 758 
Q 1494 397 1959 397 
Q 2419 397 2687 759 
Q 2956 1122 2956 1747 
Q 2956 2369 2687 2733 
Q 2419 3097 1959 3097 
z
M 1959 3584 
Q 2709 3584 3137 3096 
Q 3566 2609 3566 1747 
Q 3566 888 3137 398 
Q 2709 -91 1959 -91 
Q 1206 -91 779 398 
Q 353 888 353 1747 
Q 353 2609 779 3096 
Q 1206 3584 1959 3584 
z
" transform="scale(0.015625)"/>
     </defs>
     <use xlink:href="#DejaVuSans-63"/>
     <use xlink:href="#DejaVuSans-6c" x="54.980469"/>
     <use xlink:href="#DejaVuSans-73" x="82.763672"/>
     <use xlink:href="#DejaVuSans-43" x="134.863281"/>
     <use xlink:href="#DejaVuSans-6f" x="204.6875"/>
     <use xlink:href="#DejaVuSans-65" x="265.869141"/>
     <use xlink:href="#DejaVuSans-66" x="327.392578"/>
    </g>
    <!-- 0.48 -->
    <g style="fill: #f76915" transform="translate(126.378597 505.608281) scale(0.1 -0.1)">
     <defs>
      <path id="DejaVuSans-38" d="M 2034 2216 
Q 1584 2216 1326 1975 
Q 1069 1734 1069 1313 
Q 1069 891 1326 650 
Q 1584 409 2034 409 
Q 2484 409 2743 651 
Q 3003 894 3003 1313 
Q 3003 1734 2745 1975 
Q 2488 2216 2034 2216 
z
M 1403 2484 
Q 997 2584 770 2862 
Q 544 3141 544 3541 
Q 544 4100 942 4425 
Q 1341 4750 2034 4750 
Q 2731 4750 3128 4425 
Q 3525 4100 3525 3541 
Q 3525 3141 3298 2862 
Q 3072 2584 2669 2484 
Q 3125 2378 3379 2068 
Q 3634 1759 3634 1313 
Q 3634 634 3220 271 
Q 2806 -91 2034 -91 
Q 1263 -91 848 271 
Q 434 634 434 1313 
Q 434 1759 690 2068 
Q 947 2378 1403 2484 
z
M 1172 3481 
Q 1172 3119 1398 2916 
Q 1625 2713 2034 2713 
Q 2441 2713 2670 2916 
Q 2900 3119 2900 3481 
Q 2900 3844 2670 4047 
Q 2441 4250 2034 4250 
Q 1625 4250 1398 4047 
Q 1172 3844 1172 3481 
z
" transform="scale(0.015625)"/>
     </defs>
     <use xlink:href="#DejaVuSans-30"/>
     <use xlink:href="#DejaVuSans-2e" x="63.623047"/>
     <use xlink:href="#DejaVuSans-34" x="95.410156"/>
     <use xlink:href="#DejaVuSans-38" x="159.033203"/>
    </g>
   </g>
   <g id="text_5">
    <!-- c1 -->
    <g style="fill: #eede04" transform="translate(496.719531 592.249059) scale(0.1 -0.1)">
     <use xlink:href="#DejaVuSans-63"/>
     <use xlink:href="#DejaVuSans-31" x="54.980469"/>
    </g>
    <!-- 0.07 -->
    <g style="fill: #eede04" transform="translate(491.517187 603.446872) scale(0.1 -0.1)">
     <defs>
      <path id="DejaVuSans-37" d="M 525 4666 
L 3525 4666 
L 3525 4397 
L 1831 0 
L 1172 0 
L 2766 4134 
L 525 4134 
L 525 4666 
z
" transform="scale(0.015625)"/>
     </defs>
     <use xlink:href="#DejaVuSans-30"/>
     <use xlink:href="#DejaVuSans-2e" x="63.623047"/>
     <use xlink:href="#DejaVuSans-30" x="95.410156"/>
     <use xlink:href="#DejaVuSans-37" x="159.033203"/>
    </g>
   </g>
   <g id="text_6">
    <!-- 49.2 -->
    <g style="fill: #333333" transform="translate(355.640625 366.91125) scale(0.12 -0.12)">
     <defs>
      <path id="DejaVuSans-32" d="M 1228 531 
L 3431 531 
L 3431 0 
L 469 0 
L 469 531 
Q 828 903 1448 1529 
Q 2069 2156 2228 2338 
Q 2531 2678 2651 2914 
Q 2772 3150 2772 3378 
Q 2772 3750 2511 3984 
Q 2250 4219 1831 4219 
Q 1534 4219 1204 4116 
Q 875 4013 500 3803 
L 500 4441 
Q 881 4594 1212 4672 
Q 1544 4750 1819 4750 
Q 2544 4750 2975 4387 
Q 3406 4025 3406 3419 
Q 3406 3131 3298 2873 
Q 3191 2616 2906 2266 
Q 2828 2175 2409 1742 
Q 1991 1309 1228 531 
z
" transform="scale(0.015625)"/>
     </defs>
     <use xlink:href="#DejaVuSans-34"/>
     <use xlink:href="#DejaVuSans-39" x="63.623047"/>
     <use xlink:href="#DejaVuSans-2e" x="127.246094"/>
     <use xlink:href="#DejaVuSans-32" x="159.033203"/>
    </g>
   </g>
   <g id="PathCollection_1">
    <defs>
     <path id="m919cff39ff" d="M 0 3 
C 0.795609 3 1.55874 2.683901 2.12132 2.12132 
C 2.683901 1.55874 3 0.795609 3 0 
C 3 -0.795609 2.683901 -1.55874 2.12132 -2.12132 
C 1.55874 -2.683901 0.795609 -3 0 -3 
C -0.795609 -3 -1.55874 -2.683901 -2.12132 -2.12132 
C -2.683901 -1.55874 -3 -0.795609 -3 0 
C -3 0.795609 -2.683901 1.55874 -2.12132 2.12132 
C -1.55874 2.683901 -0.795609 3 0 3 
z
" style="stroke: #fd0100"/>
    </defs>
    <g clip-path="url(#p3e7c157468)">
     <use xlink:href="#m919cff39ff" x="566.193984" y="249.75" style="fill: #fd0100; stroke: #fd0100"/>
    </g>
   </g>
   <g id="PathCollection_2">
    <g clip-path="url(#p3e7c157468)">
     <use xlink:href="#m919cff39ff" x="369" y="135.9" style="fill: #fd0100; stroke: #fd0100"/>
    </g>
   </g>
   <g id="PathCollection_3">
    <defs>
     <path id="ma360a8aeb6" d="M 0 3 
C 0.795609 3 1.55874 2.683901 2.12132 2.12132 
C 2.683901 1.55874 3 0.795609 3 0 
C 3 -0.795609 2.683901 -1.55874 2.12132 -2.12132 
C 1.55874 -2.683901 0.795609 -3 0 -3 
C -0.795609 -3 -1.55874 -2.683901 -2.12132 -2.12132 
C -2.683901 -1.55874 -3 -0.795609 -3 0 
C -3 0.795609 -2.683901 1.55874 -2.12132 2.12132 
C -1.55874 2.683901 -0.795609 3 0 3 
z
" style="stroke: #f76915"/>
    </defs>
    <g clip-path="url(#p3e7c157468)">
     <use xlink:href="#ma360a8aeb6" x="171.806016" y="249.75" style="fill: #f76915; stroke: #f76915"/>
    </g>
   </g>
   <g id="PathCollection_4">
    <g clip-path="url(#p3e7c157468)">
     <use xlink:href="#ma360a8aeb6" x="171.806016" y="477.45" style="fill: #f76915; stroke: #f76915"/>
    </g>
   </g>
   <g id="PathCollection_5">
    <defs>
     <path id="me1687ee499" d="M 0 3 
C 0.795609 3 1.55874 2.683901 2.12132 2.12132 
C 2.683901 1.55874 3 0.795609 3 0 
C 3 -0.795609 2.683901 -1.55874 2.12132 -2.12132 
C 1.55874 -2.683901 0.795609 -3 0 -3 
C -0.795609 -3 -1.55874 -2.683901 -2.12132 -2.12132 
C -2.683901 -1.55874 -3 -0.795609 -3 0 
C -3 0.795609 -2.683901 1.55874 -2.12132 2.12132 
C -1.55874 2.683901 -0.795609 3 0 3 
z
" style="stroke: #eede04"/>
    </defs>
    <g clip-path="url(#p3e7c157468)">
     <use xlink:href="#me1687ee499" x="482.85" y="560.793984" style="fill: #eede04; stroke: #eede04"/>
    </g>
   </g>
  </g>
 </g>
 <defs>
  <clipPath id="p3e7c157468">
   <path d="M 646.2 363.6 
C 646.2 327.19843 639.029684 291.150818 625.099406 257.520153 
C 611.169128 223.889487 590.749797 193.329798 565.01 167.59 
C 539.270202 141.850203 508.710513 121.430872 475.079847 107.500594 
C 441.449182 93.570316 405.40157 86.4 369 86.4 
C 332.59843 86.4 296.550818 93.570316 262.920153 107.500594 
C 229.289487 121.430872 198.729798 141.850203 172.99 167.59 
C 147.250203 193.329798 126.830872 223.889487 112.900594 257.520153 
C 98.970316 291.150818 91.8 327.19843 91.8 363.6 
C 91.8 400.00157 98.970316 436.049182 112.900594 469.679847 
C 126.830872 503.310513 147.250203 533.870202 172.99 559.61 
C 198.729798 585.349797 229.289487 605.769128 262.920153 619.699406 
C 296.550818 633.629684 332.59843 640.8 369 640.8 
C 405.40157 640.8 441.449182 633.629684 475.079847 619.699406 
C 508.710513 605.769128 539.270202 585.349797 565.01 559.61 
C 590.749797 533.870202 611.169128 503.310513 625.099406 469.679847 
C 639.029684 436.049182 646.2 400.00157 646.2 363.6 
M 369 363.6 
C 369 363.6 369 363.6 369 363.6 
C 369 363.6 369 363.6 369 363.6 
C 369 363.6 369 363.6 369 363.6 
C 369 363.6 369 363.6 369 363.6 
C 369 363.6 369 363.6 369 363.6 
C 369 363.6 369 363.6 369 363.6 
C 369 363.6 369 363.6 369 363.6 
C 369 363.6 369 363.6 369 363.6 
C 369 363.6 369 363.6 369 363.6 
C 369 363.6 369 363.6 369 363.6 
C 369 363.6 369 363.6 369 363.6 
C 369 363.6 369 363.6 369 363.6 
C 369 363.6 369 363.6 369 363.6 
C 369 363.6 369 363.6 369 363.6 
C 369 363.6 369 363.6 369 363.6 
C 369 363.6 369 363.6 369 363.6 
z
"/>
  </clipPath>
 </defs>
</svg>
